<svg width="476" height="504" viewBox="0 0 476 504" fill="none" xmlns="http://www.w3.org/2000/svg">
<g clip-path="url(#clip0_14_5)">
<path d="M388.156 199.934C385.967 195.62 387.69 190.347 392.004 188.157C396.318 185.966 401.589 187.688 403.779 192.003C405.968 196.317 404.246 201.59 399.932 203.78C395.618 205.97 390.346 204.249 388.156 199.934Z" fill="#efeeee"/>
<path d="M112.156 344.934C109.968 340.619 111.69 335.346 116.004 333.156C120.318 330.966 125.59 332.688 127.779 337.002C129.968 341.317 128.246 346.589 123.932 348.779C119.617 350.97 114.345 349.248 112.156 344.934Z" fill="#efeeee"/>
<path d="M360.156 159.934C357.967 155.62 359.69 150.347 364.004 148.157C368.318 145.966 373.589 147.688 375.778 152.002C377.968 156.317 376.246 161.59 371.932 163.78C367.618 165.97 362.345 164.248 360.156 159.934Z" fill="#efeeee"/>
<path d="M88.1561 301.934C85.9676 297.619 87.69 292.346 92.0039 290.156C96.3179 287.966 101.59 289.688 103.779 294.002C105.968 298.316 104.246 303.589 99.932 305.779C95.6173 307.97 90.3453 306.248 88.1561 301.934Z" fill="#efeeee"/>
<path d="M394.928 202.787C405.637 238.101 403.409 276.079 388.644 309.904C373.878 343.728 347.542 371.183 314.363 387.34C281.184 403.497 243.334 407.299 207.61 398.061C171.886 388.824 140.627 367.153 119.443 336.939M98.0135 292.908C87.3034 257.595 89.5316 219.616 104.297 185.791C119.062 151.968 145.399 124.512 178.578 108.355C211.758 92.1979 249.607 88.3967 285.331 97.6342C321.055 106.872 352.315 128.543 373.497 158.756M166.977 80.8744L202.941 97.8329L186.033 134.272M314.407 417.985L278.442 401.026L295.351 364.588M270.348 153.202L318 75.5L360.285 311.637L138.382 176.254L181.618 425.5L230.951 340.053M386.724 202.08C384.535 197.766 386.258 192.493 390.572 190.302C394.886 188.112 400.158 189.834 402.348 194.149C404.537 198.463 402.814 203.735 398.5 205.926C394.186 208.116 388.914 206.394 386.724 202.08ZM112.64 343.96C110.452 339.645 112.174 334.372 116.488 332.182C120.802 329.993 126.074 331.714 128.263 336.029C130.452 340.343 128.73 345.615 124.416 347.805C120.101 349.996 114.829 348.275 112.64 343.96ZM362.513 159.276C360.324 154.962 362.046 149.69 366.36 147.499C370.675 145.309 375.946 147.031 378.135 151.345C380.325 155.659 378.602 160.932 374.288 163.123C369.974 165.313 364.701 163.59 362.513 159.276ZM89.6521 302.025C87.4636 297.71 89.186 292.437 93.5 290.247C97.8139 288.057 103.086 289.779 105.275 294.093C107.464 298.407 105.742 303.68 101.428 305.87C97.1133 308.061 91.8414 306.339 89.6521 302.025ZM333.269 294.588C306.857 340.334 248.373 356.012 202.638 329.607C156.903 303.202 141.238 244.713 167.649 198.968C194.06 153.223 252.546 137.545 298.28 163.949C344.015 190.355 359.679 248.844 333.269 294.588Z" stroke="#efeeee" stroke-width="5"/>
</g>
<defs>
<clipPath id="clip0_14_5">
<rect width="319.709" height="397.171" fill="#efeeee" transform="translate(198.586) rotate(30)"/>
</clipPath>
</defs>
</svg>
